<mxfile host="Electron" modified="2024-02-27T02:07:32.137Z" agent="Mozilla/5.0 (Windows NT 10.0; Win64; x64) AppleWebKit/537.36 (KHTML, like Gecko) draw.io/21.1.2 Chrome/106.0.5249.199 Electron/21.4.3 Safari/537.36" etag="HvkxzerbphHASFtBF6hb" version="21.1.2" type="device">
  <diagram name="Page-1" id="fEzSI9Wqr9M21snP-alJ">
    <mxGraphModel dx="1674" dy="880" grid="0" gridSize="10" guides="0" tooltips="0" connect="1" arrows="1" fold="1" page="0" pageScale="1" pageWidth="850" pageHeight="1100" math="0" shadow="0">
      <root>
        <mxCell id="0" />
        <mxCell id="1" parent="0" />
        <mxCell id="NaWivCaxySY-6qhIOFJq-1" value="dataset_2_class_1&#xa;&#xa;" style="shape=image;verticalLabelPosition=bottom;labelBackgroundColor=default;verticalAlign=top;aspect=fixed;imageAspect=0;image=data:image/png,iVBORw0KGgoAAAANSUhEUgAAAJYAAACWCAMAAAAL34HQAAAAAXNSR0IArs4c6QAAAARnQU1BAACxjwv8YQUAAAAzUExURQAAAAAAAAAAAAAAAAAAAAAAAAAAAAAAAAAAAAAAAAAAAAAAAAAAAAAAAAAAAAAAAAAAAKMFRskAAAAQdFJOUwAQIDBAUGBwgI+fr7/P3+8jGoKKAAAACXBIWXMAABcRAAAXEQHKJvM/AAABY0lEQVR4Xu3ay26DMBBGYRPut9rv/7R16GTXGv+OMlKl860cCcHRAEkWDgAAAAAAAECzblz2om2xIz0NZ7o328FuhmhXLjsfdryPLs8qbnPR+vUMc72TU64abP23zXtg+YKrLUt654HtKY22LPMdWH606rJ8B1af9RpYb58+SslyHJiUFcLqNDAxywZW8/K+Rc16DWzsW9gp7ulZNrA2x2QnudGQZQNrdNg5ypqyQn/GFlfXbucoastq1eUflVTzhPlmhXDUfe95Z+V/LDV30TtrzF8utiwh60KWgiwFWQqyFGQpyFKQpSBLQZaCLAVZCrIUZCnIUpClIEtBloIsBVkKshRkKchSkKUgS0GWgiwFWQqyFGQp/n2W6174yqzVecf5ktJmy5JcH122A/94xLq70z13ay6jkyVXxc4uXTRc2xsdVb5hwxu7W3Wxcj9sNq3H6WOfq+4gAAAAAAAA8IsQvgFAyklmyoR2YAAAAABJRU5ErkJggg==;" vertex="1" parent="1">
          <mxGeometry x="346" y="158" width="150" height="150" as="geometry" />
        </mxCell>
        <mxCell id="NaWivCaxySY-6qhIOFJq-2" value="class_1&#xa;" style="shape=image;verticalLabelPosition=bottom;labelBackgroundColor=default;verticalAlign=top;aspect=fixed;imageAspect=0;image=data:image/png,iVBORw0KGgoAAAANSUhEUgAAAJYAAACWCAMAAAAL34HQAAAAAXNSR0IArs4c6QAAAARnQU1BAACxjwv8YQUAAAAzUExURQAAAAAAAAAAAAAAAAAAAAAAAAAAAAAAAAAAAAAAAAAAAAAAAAAAAAAAAAAAAAAAAAAAAKMFRskAAAAQdFJOUwAQIDBAUGBwgI+fr7/P3+8jGoKKAAAACXBIWXMAABcRAAAXEQHKJvM/AAABKUlEQVR4Xu3bzYrCQBBF4WRMYn5s7fd/2pHhuu3UbbACw/nWJXUoI64yAAAAAAAAAN3GeX20HPs6ajTRVOq5VcNpppc2t5UfzecYI7f6k3qwRUsDyk2fSbBrZ0jewQ5tjEk7WPjRkqSDuVlJB7Ozat300W/qyMo4WE9WwsH6smqZpx5aeq4zq1dZtPdEctY7TIvb0rPqoc1N+Vk18ju+ICvyR3FBVuRbvCAr8tCT9UGWgywHWQ6yHGQ5yHKQ5SDLQZaDLAdZDrIcZDnIcpDlIMtBloMsB1kOshxkOchykOUgy0GWgywHWQ6yHGQ5yHJEsjbNJtq1umXWbKK7VreMTw2neYZe7Jg0nWbW4hO31Hu9glVvy6ZXZ75uu1/wag4AAAAAAAD+iWH4BWryQFnR+d/9AAAAAElFTkSuQmCC;" vertex="1" parent="1">
          <mxGeometry x="100" y="158" width="150" height="150" as="geometry" />
        </mxCell>
        <mxCell id="NaWivCaxySY-6qhIOFJq-4" value="&lt;font style=&quot;font-size: 72px;&quot;&gt;&lt;b&gt;...&lt;/b&gt;&lt;/font&gt;" style="text;html=1;align=center;verticalAlign=middle;resizable=0;points=[];autosize=1;strokeColor=none;fillColor=none;" vertex="1" parent="1">
          <mxGeometry x="378" y="333" width="80" height="100" as="geometry" />
        </mxCell>
        <mxCell id="NaWivCaxySY-6qhIOFJq-6" value="" style="endArrow=classic;html=1;rounded=0;exitX=1;exitY=0.5;exitDx=0;exitDy=0;entryX=0;entryY=0.5;entryDx=0;entryDy=0;" edge="1" parent="1" source="NaWivCaxySY-6qhIOFJq-2" target="NaWivCaxySY-6qhIOFJq-1">
          <mxGeometry width="50" height="50" relative="1" as="geometry">
            <mxPoint x="257" y="262" as="sourcePoint" />
            <mxPoint x="307" y="212" as="targetPoint" />
            <Array as="points">
              <mxPoint x="296" y="233" />
            </Array>
          </mxGeometry>
        </mxCell>
        <mxCell id="NaWivCaxySY-6qhIOFJq-7" value="" style="endArrow=classic;html=1;rounded=0;exitX=1;exitY=0.5;exitDx=0;exitDy=0;entryX=0;entryY=0.5;entryDx=0;entryDy=0;" edge="1" parent="1" source="NaWivCaxySY-6qhIOFJq-2" target="NaWivCaxySY-6qhIOFJq-8">
          <mxGeometry width="50" height="50" relative="1" as="geometry">
            <mxPoint x="260" y="243" as="sourcePoint" />
            <mxPoint x="359" y="111" as="targetPoint" />
            <Array as="points">
              <mxPoint x="303" y="233" />
              <mxPoint x="303" y="83" />
            </Array>
          </mxGeometry>
        </mxCell>
        <mxCell id="NaWivCaxySY-6qhIOFJq-8" value="dataset_1_class_1" style="shape=image;verticalLabelPosition=bottom;labelBackgroundColor=default;verticalAlign=top;aspect=fixed;imageAspect=0;image=data:image/png,iVBORw0KGgoAAAANSUhEUgAAAJYAAACWCAMAAAAL34HQAAAAAXNSR0IArs4c6QAAAARnQU1BAACxjwv8YQUAAAAzUExURQAAAAAAAAAAAAAAAAAAAAAAAAAAAAAAAAAAAAAAAAAAAAAAAAAAAAAAAAAAAAAAAAAAAKMFRskAAAAQdFJOUwAQIDBAUGBwgI+fr7/P3+8jGoKKAAAACXBIWXMAABcRAAAXEQHKJvM/AAABY0lEQVR4Xu3ay26DMBBGYRPut9rv/7R16GTXGv+OMlKl860cCcHRAEkWDgAAAAAAAECzblz2om2xIz0NZ7o328FuhmhXLjsfdryPLs8qbnPR+vUMc72TU64abP23zXtg+YKrLUt654HtKY22LPMdWH606rJ8B1af9RpYb58+SslyHJiUFcLqNDAxywZW8/K+Rc16DWzsW9gp7ulZNrA2x2QnudGQZQNrdNg5ypqyQn/GFlfXbucoastq1eUflVTzhPlmhXDUfe95Z+V/LDV30TtrzF8utiwh60KWgiwFWQqyFGQpyFKQpSBLQZaCLAVZCrIUZCnIUpClIEtBloIsBVkKshRkKchSkKUgS0GWgiwFWQqyFGQp/n2W6174yqzVecf5ktJmy5JcH122A/94xLq70z13ay6jkyVXxc4uXTRc2xsdVb5hwxu7W3Wxcj9sNq3H6WOfq+4gAAAAAAAA8IsQvgFAyklmyoR2YAAAAABJRU5ErkJggg==;" vertex="1" parent="1">
          <mxGeometry x="348" y="8" width="150" height="150" as="geometry" />
        </mxCell>
        <mxCell id="NaWivCaxySY-6qhIOFJq-9" value="dataset_2_class_2&#xa;&#xa;" style="shape=image;verticalLabelPosition=bottom;labelBackgroundColor=default;verticalAlign=top;aspect=fixed;imageAspect=0;image=data:image/png,iVBORw0KGgoAAAANSUhEUgAAAJYAAACWCAMAAAAL34HQAAAAAXNSR0IArs4c6QAAAARnQU1BAACxjwv8YQUAAAAzUExURQAAAAAAAAAAAAAAAAAAAAAAAAAAAAAAAAAAAAAAAAAAAAAAAAAAAAAAAAAAAAAAAAAAAKMFRskAAAAQdFJOUwAQIDBAUGBwgI+fr7/P3+8jGoKKAAAACXBIWXMAABcRAAAXEQHKJvM/AAABY0lEQVR4Xu3ay26DMBBGYRPut9rv/7R16GTXGv+OMlKl860cCcHRAEkWDgAAAAAAAECzblz2om2xIz0NZ7o328FuhmhXLjsfdryPLs8qbnPR+vUMc72TU64abP23zXtg+YKrLUt654HtKY22LPMdWH606rJ8B1af9RpYb58+SslyHJiUFcLqNDAxywZW8/K+Rc16DWzsW9gp7ulZNrA2x2QnudGQZQNrdNg5ypqyQn/GFlfXbucoastq1eUflVTzhPlmhXDUfe95Z+V/LDV30TtrzF8utiwh60KWgiwFWQqyFGQpyFKQpSBLQZaCLAVZCrIUZCnIUpClIEtBloIsBVkKshRkKchSkKUgS0GWgiwFWQqyFGQp/n2W6174yqzVecf5ktJmy5JcH122A/94xLq70z13ay6jkyVXxc4uXTRc2xsdVb5hwxu7W3Wxcj9sNq3H6WOfq+4gAAAAAAAA8IsQvgFAyklmyoR2YAAAAABJRU5ErkJggg==;" vertex="1" parent="1">
          <mxGeometry x="801" y="158" width="150" height="150" as="geometry" />
        </mxCell>
        <mxCell id="NaWivCaxySY-6qhIOFJq-10" value="class_2&#xa;&#xa;" style="shape=image;verticalLabelPosition=bottom;labelBackgroundColor=default;verticalAlign=top;aspect=fixed;imageAspect=0;image=data:image/png,iVBORw0KGgoAAAANSUhEUgAAAJYAAACWCAMAAAAL34HQAAAAAXNSR0IArs4c6QAAAARnQU1BAACxjwv8YQUAAAAzUExURQAAAAAAAAAAAAAAAAAAAAAAAAAAAAAAAAAAAAAAAAAAAAAAAAAAAAAAAAAAAAAAAAAAAKMFRskAAAAQdFJOUwAQIDBAUGBwgI+fr7/P3+8jGoKKAAAACXBIWXMAABcRAAAXEQHKJvM/AAABKUlEQVR4Xu3bzYrCQBBF4WRMYn5s7fd/2pHhuu3UbbACw/nWJXUoI64yAAAAAAAAAN3GeX20HPs6ajTRVOq5VcNpppc2t5UfzecYI7f6k3qwRUsDyk2fSbBrZ0jewQ5tjEk7WPjRkqSDuVlJB7Ozat300W/qyMo4WE9WwsH6smqZpx5aeq4zq1dZtPdEctY7TIvb0rPqoc1N+Vk18ju+ICvyR3FBVuRbvCAr8tCT9UGWgywHWQ6yHGQ5yHKQ5SDLQZaDLAdZDrIcZDnIcpDlIMtBloMsB1kOshxkOchykOUgy0GWgywHWQ6yHGQ5yHJEsjbNJtq1umXWbKK7VreMTw2neYZe7Jg0nWbW4hO31Hu9glVvy6ZXZ75uu1/wag4AAAAAAAD+iWH4BWryQFnR+d/9AAAAAElFTkSuQmCC;" vertex="1" parent="1">
          <mxGeometry x="555" y="158" width="150" height="150" as="geometry" />
        </mxCell>
        <mxCell id="NaWivCaxySY-6qhIOFJq-11" value="&lt;font style=&quot;font-size: 72px;&quot;&gt;&lt;b&gt;...&lt;/b&gt;&lt;/font&gt;" style="text;html=1;align=center;verticalAlign=middle;resizable=0;points=[];autosize=1;strokeColor=none;fillColor=none;" vertex="1" parent="1">
          <mxGeometry x="833" y="333" width="80" height="100" as="geometry" />
        </mxCell>
        <mxCell id="NaWivCaxySY-6qhIOFJq-12" value="" style="endArrow=classic;html=1;rounded=0;exitX=1;exitY=0.5;exitDx=0;exitDy=0;entryX=0;entryY=0.5;entryDx=0;entryDy=0;" edge="1" parent="1" source="NaWivCaxySY-6qhIOFJq-10" target="NaWivCaxySY-6qhIOFJq-9">
          <mxGeometry width="50" height="50" relative="1" as="geometry">
            <mxPoint x="712" y="262" as="sourcePoint" />
            <mxPoint x="762" y="212" as="targetPoint" />
            <Array as="points">
              <mxPoint x="751" y="233" />
            </Array>
          </mxGeometry>
        </mxCell>
        <mxCell id="NaWivCaxySY-6qhIOFJq-13" value="" style="endArrow=classic;html=1;rounded=0;exitX=1;exitY=0.5;exitDx=0;exitDy=0;entryX=0;entryY=0.5;entryDx=0;entryDy=0;" edge="1" parent="1" source="NaWivCaxySY-6qhIOFJq-10" target="NaWivCaxySY-6qhIOFJq-14">
          <mxGeometry width="50" height="50" relative="1" as="geometry">
            <mxPoint x="715" y="243" as="sourcePoint" />
            <mxPoint x="814" y="111" as="targetPoint" />
            <Array as="points">
              <mxPoint x="758" y="233" />
              <mxPoint x="758" y="83" />
            </Array>
          </mxGeometry>
        </mxCell>
        <mxCell id="NaWivCaxySY-6qhIOFJq-14" value="dataset_1_class_2" style="shape=image;verticalLabelPosition=bottom;labelBackgroundColor=default;verticalAlign=top;aspect=fixed;imageAspect=0;image=data:image/png,iVBORw0KGgoAAAANSUhEUgAAAJYAAACWCAMAAAAL34HQAAAAAXNSR0IArs4c6QAAAARnQU1BAACxjwv8YQUAAAAzUExURQAAAAAAAAAAAAAAAAAAAAAAAAAAAAAAAAAAAAAAAAAAAAAAAAAAAAAAAAAAAAAAAAAAAKMFRskAAAAQdFJOUwAQIDBAUGBwgI+fr7/P3+8jGoKKAAAACXBIWXMAABcRAAAXEQHKJvM/AAABY0lEQVR4Xu3ay26DMBBGYRPut9rv/7R16GTXGv+OMlKl860cCcHRAEkWDgAAAAAAAECzblz2om2xIz0NZ7o328FuhmhXLjsfdryPLs8qbnPR+vUMc72TU64abP23zXtg+YKrLUt654HtKY22LPMdWH606rJ8B1af9RpYb58+SslyHJiUFcLqNDAxywZW8/K+Rc16DWzsW9gp7ulZNrA2x2QnudGQZQNrdNg5ypqyQn/GFlfXbucoastq1eUflVTzhPlmhXDUfe95Z+V/LDV30TtrzF8utiwh60KWgiwFWQqyFGQpyFKQpSBLQZaCLAVZCrIUZCnIUpClIEtBloIsBVkKshRkKchSkKUgS0GWgiwFWQqyFGQp/n2W6174yqzVecf5ktJmy5JcH122A/94xLq70z13ay6jkyVXxc4uXTRc2xsdVb5hwxu7W3Wxcj9sNq3H6WOfq+4gAAAAAAAA8IsQvgFAyklmyoR2YAAAAABJRU5ErkJggg==;" vertex="1" parent="1">
          <mxGeometry x="803" y="8" width="150" height="150" as="geometry" />
        </mxCell>
      </root>
    </mxGraphModel>
  </diagram>
</mxfile>
